<svg width="16" height="17" viewBox="0 0 16 17" fill="none" xmlns="http://www.w3.org/2000/svg">
<path d="M14.555 12.9479H14.4386V7.61492C14.4386 3.86089 11.3925 0.814816 7.63848 0.814816C3.88444 0.814816 0.838369 3.86089 0.838369 7.61492V12.9479H0.721929C0.321375 12.9479 0 13.2693 0 13.6698C0 14.0704 0.321375 14.3917 0.721929 14.3917H14.555C14.9556 14.3917 15.277 14.0704 15.277 13.6698C15.277 13.2693 14.9556 12.9479 14.555 12.9479ZM12.9714 12.9479H2.30552V7.67081C2.30552 4.72721 4.69487 2.33785 7.63848 2.33785C10.5821 2.33785 12.9714 4.72721 12.9714 7.67081V12.9479Z" fill="#72747C"/>
<path d="M8.6399 15.1835H6.96317C6.46014 15.1835 6.05493 15.5887 6.05493 16.0918C6.05493 16.5948 6.46014 17 6.96317 17H8.6399C9.14293 17 9.54814 16.5948 9.54814 16.0918C9.54814 15.5887 9.14293 15.1835 8.6399 15.1835Z" fill="#72747C"/>
</svg>
