<svg width="16" height="16" viewBox="0 0 16 16" fill="none" xmlns="http://www.w3.org/2000/svg">
<path d="M13.4868 0.85H11.5273C11.218 0.85 10.9672 1.1008 10.9672 1.41016C10.9672 1.71951 11.218 1.97031 11.5273 1.97031H13.4868C13.786 1.97031 14.0297 2.214 14.0297 2.51323V4.47266C14.0297 4.78201 14.2805 5.03281 14.5898 5.03281C14.8992 5.03281 15.15 4.78201 15.15 4.47266V2.51323C15.15 1.59599 14.404 0.85 13.4868 0.85Z" fill="#72747C" stroke="#72747C" stroke-width="0.3"/>
<path d="M1.41016 5.03281C1.71951 5.03281 1.97031 4.78201 1.97031 4.47266V2.51323C1.97031 2.214 2.214 1.97031 2.5132 1.97031H4.47266C4.78201 1.97031 5.03281 1.71951 5.03281 1.41016C5.03281 1.1008 4.78201 0.85 4.47266 0.85H2.5132C1.59599 0.85 0.85 1.59599 0.85 2.51323V4.47266C0.85 4.78201 1.1008 5.03281 1.41016 5.03281Z" fill="#72747C" stroke="#72747C" stroke-width="0.3"/>
<path d="M4.47266 14.0297H2.5132C2.214 14.0297 1.97031 13.786 1.97031 13.4868V11.5273C1.97031 11.218 1.71951 10.9672 1.41016 10.9672C1.1008 10.9672 0.85 11.218 0.85 11.5273V13.4868C0.85 14.404 1.59599 15.15 2.5132 15.15H4.47266C4.78201 15.15 5.03281 14.8992 5.03281 14.5898C5.03281 14.2805 4.78201 14.0297 4.47266 14.0297Z" fill="#72747C" stroke="#72747C" stroke-width="0.3"/>
<path d="M14.5898 10.9672C14.2805 10.9672 14.0297 11.218 14.0297 11.5273V13.4868C14.0297 13.786 13.786 14.0297 13.4868 14.0297H11.5273C11.218 14.0297 10.9672 14.2805 10.9672 14.5898C10.9672 14.8992 11.218 15.15 11.5273 15.15H13.4868C14.404 15.15 15.15 14.404 15.15 13.4868V11.5273C15.15 11.218 14.8992 10.9672 14.5898 10.9672Z" fill="#72747C" stroke="#72747C" stroke-width="0.3"/>
<path d="M0.877344 8C0.877344 8.30936 1.12814 8.56016 1.4375 8.56016H14.5625C14.8719 8.56016 15.1227 8.30936 15.1227 8C15.1227 7.69064 14.8719 7.43984 14.5625 7.43984H1.4375C1.12814 7.43984 0.877344 7.69064 0.877344 8Z" fill="#72747C" stroke="#72747C" stroke-width="0.3"/>
</svg>
